<svg width="20" height="20" viewBox="0 0 20 20" fill="none" xmlns="http://www.w3.org/2000/svg">
<g clip-path="url(#clip0)">
<path d="M16.8109 19.9988C16.3033 19.9988 15.7945 19.805 15.4069 19.4186L10 14.0128L4.59424 19.4186C3.81795 20.1937 2.55899 20.1937 1.78374 19.4186L0.581439 18.2161C-0.193813 17.4411 -0.193813 16.1809 0.581439 15.4056L5.98703 10L0.581439 4.59424C-0.193813 3.81795 -0.193813 2.55775 0.581439 1.78374L1.78374 0.581439C2.55775 -0.192568 3.81795 -0.193813 4.5932 0.581439L10 5.98703L15.4056 0.581439C16.1832 -0.193813 17.4421 -0.193813 18.2161 0.581439L19.4186 1.78374C20.1937 2.55899 20.1937 3.81919 19.4186 4.59424L14.0128 10L19.4186 15.4056C20.1937 16.1809 20.1937 17.4411 19.4186 18.2161L18.2161 19.4186C17.8287 19.805 17.3199 19.9988 16.8109 19.9988ZM10 11.9606C10.2256 11.9606 10.442 12.05 10.6006 12.2098L16.6069 18.2161C16.7181 18.3261 16.9038 18.3261 17.0138 18.2161L18.2161 17.0138C18.3274 16.9038 18.3261 16.7169 18.2161 16.6059L12.2098 10.6006C11.8778 10.2686 11.8778 9.73028 12.2098 9.39826L18.2161 3.39193C18.3261 3.28195 18.3274 3.09499 18.2161 2.98501L17.0138 1.78374C16.9028 1.67376 16.7181 1.67376 16.6059 1.78374L10.6006 7.79007C10.2823 8.1086 9.71783 8.1086 9.39826 7.79007L3.39193 1.78374C3.28092 1.67376 3.09499 1.67376 2.98501 1.78374L1.78374 2.98625C1.67273 3.09603 1.67376 3.28299 1.78374 3.39422L7.79007 9.3993C8.12209 9.73132 8.12209 10.2698 7.79007 10.6018L1.78374 16.6081C1.67376 16.7181 1.67273 16.9051 1.78374 17.0149L2.98625 18.2174C3.09727 18.3274 3.28195 18.3274 3.39422 18.2174L9.3993 12.211C9.55805 12.05 9.77448 11.9606 10 11.9606Z" fill="black"/>
</g>
<defs>
<clipPath id="clip0">
<rect width="20" height="20" fill="white"/>
</clipPath>
</defs>
</svg>
