<svg width="145" height="32" viewBox="0 0 145 32" fill="none" xmlns="http://www.w3.org/2000/svg">
<path d="M10.86 13H0.524994V12.4C0.854994 12.39 1.12499 12.36 1.33499 12.31C1.54499 12.26 1.70499 12.175 1.81499 12.055C1.92499 11.935 1.99999 11.765 2.03999 11.545C2.07999 11.325 2.09999 11.04 2.09999 10.69V3.75995C2.09999 3.40995 2.07999 3.12995 2.03999 2.91995C2.00999 2.69995 1.94499 2.52995 1.84499 2.40995C1.74499 2.27995 1.59999 2.19495 1.40999 2.15495C1.22999 2.10495 0.989994 2.06995 0.689994 2.04995V1.44995H5.86499V2.04995C5.52499 2.05995 5.24999 2.08995 5.03999 2.13995C4.83999 2.18995 4.68499 2.27995 4.57499 2.40995C4.46499 2.53995 4.38999 2.71995 4.34999 2.94995C4.31999 3.17995 4.30499 3.48495 4.30499 3.86495V10.15C4.30499 10.57 4.34499 10.915 4.42499 11.185C4.51499 11.445 4.66499 11.65 4.87499 11.8C5.08499 11.94 5.36499 12.04 5.71499 12.1C6.06499 12.15 6.49999 12.175 7.01999 12.175C7.59999 12.175 8.08499 12.14 8.47499 12.07C8.86499 12 9.18999 11.87 9.45 11.68C9.71999 11.48 9.93499 11.215 10.095 10.885C10.255 10.555 10.39 10.125 10.5 9.59495H11.1L10.86 13Z" fill="white"/>
<path d="M22.4732 8.34995C22.4732 9.19995 22.3782 9.92995 22.1882 10.54C22.0082 11.14 21.7232 11.635 21.3332 12.025C20.9432 12.415 20.4382 12.7 19.8182 12.88C19.2082 13.06 18.4732 13.15 17.6132 13.15C16.0032 13.15 14.8232 12.815 14.0732 12.145C13.3332 11.465 12.9632 10.385 12.9632 8.90495V4.79495C12.9632 4.40495 12.9582 4.07995 12.9482 3.81995C12.9382 3.54995 12.9232 3.32495 12.9032 3.14495C12.8832 2.96495 12.8532 2.81995 12.8132 2.70995C12.7832 2.58995 12.7432 2.48995 12.6932 2.40995C12.6032 2.26995 12.4732 2.17495 12.3032 2.12495C12.1332 2.07495 11.8732 2.04995 11.5232 2.04995V1.44995H16.9082V2.04995C16.4882 2.04995 16.1782 2.07495 15.9782 2.12495C15.7782 2.16495 15.6232 2.24995 15.5132 2.37995C15.4432 2.45995 15.3832 2.55995 15.3332 2.67995C15.2932 2.78995 15.2582 2.93995 15.2282 3.12995C15.2082 3.30995 15.1932 3.53495 15.1832 3.80495C15.1732 4.07495 15.1682 4.40495 15.1682 4.79495V8.72495C15.1682 9.86495 15.4082 10.71 15.8882 11.26C16.3782 11.8 17.1282 12.07 18.1382 12.07C20.1982 12.07 21.2282 10.925 21.2282 8.63495V5.16995C21.2282 4.74995 21.2182 4.38995 21.1982 4.08995C21.1882 3.78995 21.1632 3.53495 21.1232 3.32495C21.0932 3.11495 21.0482 2.93995 20.9882 2.79995C20.9382 2.65995 20.8732 2.54495 20.7932 2.45495C20.6532 2.31495 20.4732 2.21495 20.2532 2.15495C20.0332 2.08495 19.7282 2.04995 19.3382 2.04995V1.44995H24.1982V2.04995C23.8282 2.04995 23.5432 2.07995 23.3432 2.13995C23.1432 2.18995 22.9882 2.28495 22.8782 2.42495C22.7982 2.51495 22.7332 2.63495 22.6832 2.78495C22.6332 2.92495 22.5932 3.10495 22.5632 3.32495C22.5332 3.53495 22.5082 3.78995 22.4882 4.08995C22.4782 4.38995 22.4732 4.74995 22.4732 5.16995V8.34995Z" fill="white"/>
<path d="M35.2064 11.335C35.4564 11.675 35.7464 11.94 36.0764 12.13C36.4164 12.31 36.7914 12.4 37.2014 12.4V13H31.6064V12.4C31.8564 12.4 32.0564 12.39 32.2064 12.37C32.3664 12.35 32.4864 12.325 32.5664 12.295C32.6564 12.265 32.7114 12.225 32.7314 12.175C32.7614 12.125 32.7764 12.07 32.7764 12.01C32.7764 11.95 32.7614 11.89 32.7314 11.83C32.7114 11.76 32.6714 11.675 32.6114 11.575C32.5514 11.475 32.4714 11.35 32.3714 11.2C32.2714 11.05 32.1414 10.865 31.9814 10.645L30.3764 8.36495L29.3414 9.63995C29.1214 9.90995 28.9064 10.16 28.6964 10.39C28.4964 10.62 28.3114 10.835 28.1414 11.035C27.9814 11.235 27.8514 11.415 27.7514 11.575C27.6514 11.725 27.6014 11.86 27.6014 11.98C27.6014 12.14 27.7014 12.25 27.9014 12.31C28.1014 12.37 28.4314 12.4 28.8914 12.4V13H24.2864V12.4C24.5564 12.4 24.7864 12.39 24.9764 12.37C25.1764 12.34 25.3514 12.29 25.5014 12.22C25.6614 12.15 25.8064 12.055 25.9364 11.935C26.0764 11.805 26.2314 11.64 26.4014 11.44L29.6864 7.43495L26.1914 2.90495C25.9214 2.55495 25.6514 2.32495 25.3814 2.21495C25.1114 2.10495 24.8064 2.04995 24.4664 2.04995V1.44995H30.1064V2.04995C29.7464 2.04995 29.4864 2.09495 29.3264 2.18495C29.1664 2.27495 29.0864 2.40995 29.0864 2.58995C29.0864 2.85995 29.2364 3.19495 29.5364 3.59495L31.0814 5.72495L33.0164 3.41495C33.1664 3.23495 33.2714 3.07495 33.3314 2.93495C33.4014 2.78495 33.4364 2.64495 33.4364 2.51495C33.4364 2.44495 33.4214 2.37995 33.3914 2.31995C33.3614 2.25995 33.3014 2.20995 33.2114 2.16995C33.1314 2.12995 33.0114 2.09995 32.8514 2.07995C32.6914 2.05995 32.4814 2.04995 32.2214 2.04995V1.44995H36.6914V2.04995C36.2714 2.04995 35.9464 2.07995 35.7164 2.13995C35.4864 2.19995 35.2964 2.31995 35.1464 2.49995L31.8014 6.63995L35.2064 11.335Z" fill="white"/>
<path d="M48.3862 8.34995C48.3862 9.19995 48.2912 9.92995 48.1012 10.54C47.9212 11.14 47.6362 11.635 47.2462 12.025C46.8562 12.415 46.3512 12.7 45.7312 12.88C45.1212 13.06 44.3862 13.15 43.5262 13.15C41.9162 13.15 40.7362 12.815 39.9862 12.145C39.2462 11.465 38.8762 10.385 38.8762 8.90495V4.79495C38.8762 4.40495 38.8712 4.07995 38.8612 3.81995C38.8512 3.54995 38.8362 3.32495 38.8162 3.14495C38.7962 2.96495 38.7662 2.81995 38.7262 2.70995C38.6962 2.58995 38.6562 2.48995 38.6062 2.40995C38.5162 2.26995 38.3862 2.17495 38.2162 2.12495C38.0462 2.07495 37.7862 2.04995 37.4362 2.04995V1.44995H42.8212V2.04995C42.4012 2.04995 42.0912 2.07495 41.8912 2.12495C41.6912 2.16495 41.5362 2.24995 41.4262 2.37995C41.3562 2.45995 41.2962 2.55995 41.2462 2.67995C41.2062 2.78995 41.1712 2.93995 41.1412 3.12995C41.1212 3.30995 41.1062 3.53495 41.0962 3.80495C41.0862 4.07495 41.0812 4.40495 41.0812 4.79495V8.72495C41.0812 9.86495 41.3212 10.71 41.8012 11.26C42.2912 11.8 43.0412 12.07 44.0512 12.07C46.1112 12.07 47.1412 10.925 47.1412 8.63495V5.16995C47.1412 4.74995 47.1312 4.38995 47.1112 4.08995C47.1012 3.78995 47.0762 3.53495 47.0362 3.32495C47.0062 3.11495 46.9612 2.93995 46.9012 2.79995C46.8512 2.65995 46.7862 2.54495 46.7062 2.45495C46.5662 2.31495 46.3862 2.21495 46.1662 2.15495C45.9462 2.08495 45.6412 2.04995 45.2512 2.04995V1.44995H50.1112V2.04995C49.7412 2.04995 49.4562 2.07995 49.2562 2.13995C49.0562 2.18995 48.9012 2.28495 48.7912 2.42495C48.7112 2.51495 48.6462 2.63495 48.5962 2.78495C48.5462 2.92495 48.5062 3.10495 48.4762 3.32495C48.4462 3.53495 48.4212 3.78995 48.4012 4.08995C48.3912 4.38995 48.3862 4.74995 48.3862 5.16995V8.34995Z" fill="white"/>
<path d="M60.6545 4.34495C60.6545 5.17495 60.4145 5.86995 59.9345 6.42995C59.4545 6.98995 58.6895 7.36495 57.6395 7.55495L61.1195 11.545C61.3595 11.825 61.6445 12.04 61.9745 12.19C62.3045 12.33 62.6395 12.4 62.9795 12.4V13H59.4245L55.7045 8.43995C55.4545 8.13995 55.2345 7.93995 55.0445 7.83995C54.8645 7.72995 54.6945 7.67495 54.5345 7.67495V10.615C54.5345 10.985 54.5595 11.29 54.6095 11.53C54.6595 11.76 54.7595 11.94 54.9095 12.07C55.0595 12.2 55.2745 12.29 55.5545 12.34C55.8445 12.38 56.2295 12.4 56.7095 12.4V13H50.7545V12.4C51.0845 12.4 51.3495 12.38 51.5495 12.34C51.7595 12.29 51.9195 12.205 52.0295 12.085C52.1495 11.955 52.2295 11.78 52.2695 11.56C52.3095 11.33 52.3295 11.04 52.3295 10.69V3.75995C52.3295 3.40995 52.3145 3.12995 52.2845 2.91995C52.2545 2.69995 52.1895 2.52995 52.0895 2.40995C51.9895 2.27995 51.8445 2.19495 51.6545 2.15495C51.4745 2.10495 51.2295 2.06995 50.9195 2.04995V1.44995H56.1095C57.5595 1.44995 58.6795 1.70495 59.4695 2.21495C60.2595 2.72495 60.6545 3.43495 60.6545 4.34495ZM54.5345 6.77495H55.5095C56.4495 6.77495 57.1495 6.59495 57.6095 6.23495C58.0795 5.86495 58.3145 5.25995 58.3145 4.41995C58.3145 3.77995 58.1195 3.26495 57.7295 2.87495C57.3395 2.48495 56.7995 2.28995 56.1095 2.28995H54.8045C54.6245 2.28995 54.5345 2.37495 54.5345 2.54495V6.77495Z" fill="white"/>
<path d="M63.3607 3.33995C63.2107 3.07995 63.0707 2.86495 62.9407 2.69495C62.8207 2.52495 62.6957 2.39495 62.5657 2.30495C62.4357 2.20495 62.2957 2.13995 62.1457 2.10995C61.9957 2.06995 61.8257 2.04995 61.6357 2.04995V1.44995H66.6757V2.04995C66.2557 2.04995 65.9607 2.08995 65.7907 2.16995C65.6207 2.24995 65.5357 2.36995 65.5357 2.52995C65.5357 2.62995 65.5657 2.74995 65.6257 2.88995C65.6857 3.02995 65.7807 3.21995 65.9107 3.45995L68.0557 7.55495H68.1157L70.0057 4.40495C70.3357 3.84495 70.5657 3.42995 70.6957 3.15995C70.8257 2.87995 70.8907 2.65995 70.8907 2.49995C70.8907 2.32995 70.8107 2.21495 70.6507 2.15495C70.5007 2.08495 70.2157 2.04995 69.7957 2.04995V1.44995H73.5607V2.04995C73.3407 2.04995 73.1407 2.08495 72.9607 2.15495C72.7807 2.22495 72.5907 2.36495 72.3907 2.57495C72.2007 2.77495 71.9807 3.05995 71.7307 3.42995C71.4907 3.78995 71.2007 4.26495 70.8607 4.85495L68.6707 8.60495V10.135C68.6707 10.635 68.6907 11.035 68.7307 11.335C68.7807 11.635 68.8607 11.865 68.9707 12.025C69.0907 12.175 69.2507 12.275 69.4507 12.325C69.6507 12.375 69.9107 12.4 70.2307 12.4V13H64.8907V12.4C65.2007 12.4 65.4557 12.375 65.6557 12.325C65.8657 12.275 66.0307 12.175 66.1507 12.025C66.2707 11.875 66.3507 11.66 66.3907 11.38C66.4407 11.09 66.4657 10.71 66.4657 10.24V8.85995L63.3607 3.33995Z" fill="white"/>
<path d="M82.5807 10.42L84.5307 5.42495C84.7207 4.93495 84.8707 4.53495 84.9807 4.22495C85.1007 3.91495 85.1907 3.65995 85.2507 3.45995C85.3107 3.25995 85.3507 3.09995 85.3707 2.97995C85.3907 2.85995 85.4007 2.74495 85.4007 2.63495C85.4007 2.39495 85.3107 2.23995 85.1307 2.16995C84.9507 2.08995 84.5907 2.04995 84.0507 2.04995V1.44995H88.3107V2.04995C87.4807 2.04995 86.9057 2.45495 86.5857 3.26495L82.6407 13.15H81.5307L77.9457 4.38995C77.7457 3.91995 77.5657 3.53495 77.4057 3.23495C77.2457 2.93495 77.0757 2.69995 76.8957 2.52995C76.7157 2.34995 76.5157 2.22995 76.2957 2.16995C76.0857 2.09995 75.8357 2.06495 75.5457 2.06495V1.44995H81.2157V2.06495C80.9557 2.07495 80.7357 2.08995 80.5557 2.10995C80.3857 2.12995 80.2507 2.16495 80.1507 2.21495C80.0507 2.25495 79.9807 2.31495 79.9407 2.39495C79.9007 2.46495 79.8807 2.55495 79.8807 2.66495C79.8807 2.80495 79.9057 2.96995 79.9557 3.15995C80.0057 3.34995 80.0807 3.57995 80.1807 3.84995L82.5807 10.42Z" fill="white"/>
<path d="M93.9761 13H88.621V12.4C88.961 12.39 89.231 12.36 89.431 12.31C89.641 12.25 89.801 12.145 89.911 11.995C90.021 11.845 90.096 11.635 90.136 11.365C90.176 11.085 90.196 10.71 90.196 10.24V4.20995C90.196 3.78995 90.176 3.44495 90.136 3.17495C90.106 2.89495 90.041 2.67495 89.941 2.51495C89.841 2.35495 89.6961 2.24495 89.5061 2.18495C89.3261 2.11495 89.081 2.06995 88.771 2.04995V1.44995H93.826V2.04995C93.516 2.06995 93.2661 2.11495 93.076 2.18495C92.8961 2.24495 92.7561 2.35495 92.6561 2.51495C92.5561 2.67495 92.486 2.89495 92.446 3.17495C92.416 3.44495 92.401 3.78995 92.401 4.20995V10.24C92.401 10.71 92.416 11.085 92.446 11.365C92.486 11.635 92.5611 11.845 92.6711 11.995C92.7911 12.145 92.951 12.25 93.151 12.31C93.361 12.36 93.6361 12.39 93.9761 12.4V13Z" fill="white"/>
<path d="M98.8167 6.60995C99.4567 6.60995 99.9717 6.58995 100.362 6.54995C100.752 6.50995 101.052 6.42995 101.262 6.30995C101.482 6.17995 101.637 5.99495 101.727 5.75495C101.817 5.51495 101.887 5.18995 101.937 4.77995H102.492V9.17495H101.937C101.877 8.77495 101.797 8.45495 101.697 8.21495C101.597 7.97495 101.437 7.79495 101.217 7.67495C100.997 7.54495 100.697 7.46495 100.317 7.43495C99.9467 7.39495 99.4467 7.37495 98.8167 7.37495V10.465C98.8167 10.785 98.8567 11.055 98.9367 11.275C99.0267 11.495 99.1717 11.675 99.3717 11.815C99.5717 11.945 99.8367 12.04 100.167 12.1C100.497 12.15 100.902 12.175 101.382 12.175C101.952 12.175 102.432 12.135 102.822 12.055C103.222 11.975 103.552 11.835 103.812 11.635C104.072 11.435 104.282 11.17 104.442 10.84C104.602 10.5 104.737 10.075 104.847 9.56495H105.447L105.207 13H95.0367V12.4C95.3667 12.39 95.6367 12.36 95.8467 12.31C96.0567 12.26 96.2167 12.175 96.3267 12.055C96.4367 11.935 96.5117 11.765 96.5517 11.545C96.5917 11.325 96.6117 11.04 96.6117 10.69V3.75995C96.6117 3.40995 96.5917 3.12995 96.5517 2.91995C96.5217 2.69995 96.4567 2.52995 96.3567 2.40995C96.2567 2.27995 96.1117 2.19495 95.9217 2.15495C95.7417 2.10495 95.5017 2.06995 95.2017 2.04995V1.44995H104.682L104.787 4.38995H104.142C104.082 3.96995 103.987 3.62495 103.857 3.35495C103.727 3.07495 103.547 2.85495 103.317 2.69495C103.087 2.52495 102.787 2.40995 102.417 2.34995C102.057 2.27995 101.612 2.24495 101.082 2.24495H99.3867C99.1267 2.24495 98.9667 2.27995 98.9067 2.34995C98.8467 2.40995 98.8167 2.55995 98.8167 2.79995V6.60995Z" fill="white"/>
<path d="M119.272 10.09L121.297 4.29995C121.537 3.62995 121.657 3.12995 121.657 2.79995C121.657 2.48995 121.547 2.28995 121.327 2.19995C121.117 2.09995 120.787 2.04995 120.337 2.04995V1.44995H124.597V2.04995C124.217 2.04995 123.872 2.14495 123.562 2.33495C123.262 2.51495 123.032 2.82495 122.872 3.26495L119.257 13.15H117.922L115.312 5.22995L112.342 13.15H111.097L107.917 4.38995C107.727 3.87995 107.552 3.46995 107.392 3.15995C107.232 2.84995 107.062 2.61495 106.882 2.45495C106.702 2.29495 106.507 2.18995 106.297 2.13995C106.087 2.08995 105.837 2.06495 105.547 2.06495V1.44995H111.217V2.06495C110.707 2.06495 110.357 2.11495 110.167 2.21495C109.977 2.30495 109.882 2.45995 109.882 2.67995C109.882 2.75995 109.887 2.83995 109.897 2.91995C109.907 2.98995 109.927 3.07495 109.957 3.17495C109.987 3.26495 110.022 3.37995 110.062 3.51995C110.112 3.65995 110.177 3.83495 110.257 4.04495L112.357 10.09L114.787 3.45995C114.687 3.18995 114.587 2.96995 114.487 2.79995C114.387 2.62995 114.267 2.49495 114.127 2.39495C113.997 2.29495 113.847 2.22495 113.677 2.18495C113.507 2.13495 113.302 2.09495 113.062 2.06495V1.44995H118.357V2.06495C117.937 2.06495 117.627 2.11995 117.427 2.22995C117.227 2.32995 117.127 2.52995 117.127 2.82995C117.127 2.97995 117.147 3.15495 117.187 3.35495C117.237 3.55495 117.302 3.78495 117.382 4.04495L119.272 10.09Z" fill="white"/>
<path d="M130.5 7C130.5 3.41015 133.41 0.5 137 0.5H138C141.59 0.5 144.5 3.41015 144.5 7V14.5H130.5V7Z" stroke="#F1BC00"/>
<line x1="137.5" y1="1" x2="137.5" y2="14" stroke="#F1BC00"/>
<line x1="131" y1="7.5" x2="144" y2="7.5" stroke="#F1BC00"/>
<path d="M3.888 29.144C3.416 29.144 2.984 29.048 2.592 28.856C2.2 28.656 1.86 28.376 1.572 28.016C1.292 27.656 1.072 27.224 0.911997 26.72C0.751997 26.208 0.671997 25.64 0.671997 25.016C0.671997 24.392 0.751997 23.828 0.911997 23.324C1.072 22.82 1.292 22.392 1.572 22.04C1.86 21.688 2.2 21.416 2.592 21.224C2.984 21.032 3.416 20.936 3.888 20.936C4.352 20.936 4.78 21.032 5.172 21.224C5.572 21.416 5.912 21.688 6.192 22.04C6.48 22.392 6.704 22.82 6.864 23.324C7.024 23.828 7.104 24.392 7.104 25.016C7.104 25.64 7.024 26.208 6.864 26.72C6.704 27.224 6.48 27.656 6.192 28.016C5.912 28.376 5.572 28.656 5.172 28.856C4.78 29.048 4.352 29.144 3.888 29.144ZM3.888 28.784C4.304 28.784 4.684 28.696 5.028 28.52C5.38 28.336 5.676 28.08 5.916 27.752C6.164 27.424 6.356 27.028 6.492 26.564C6.628 26.1 6.696 25.584 6.696 25.016C6.696 24.448 6.628 23.936 6.492 23.48C6.356 23.016 6.164 22.624 5.916 22.304C5.676 21.976 5.38 21.728 5.028 21.56C4.684 21.384 4.304 21.296 3.888 21.296C3.464 21.296 3.08 21.384 2.736 21.56C2.392 21.728 2.096 21.976 1.848 22.304C1.608 22.624 1.42 23.016 1.284 23.48C1.148 23.936 1.08 24.448 1.08 25.016C1.08 25.584 1.148 26.1 1.284 26.564C1.42 27.028 1.608 27.424 1.848 27.752C2.096 28.08 2.392 28.336 2.736 28.52C3.08 28.696 3.464 28.784 3.888 28.784Z" fill="#F1F1F1"/>
<path d="M12.7732 29V23.264H13.1332V25.832H14.6812L15.2932 24.368C15.3972 24.112 15.5012 23.904 15.6052 23.744C15.7092 23.576 15.8092 23.448 15.9052 23.36C16.0092 23.264 16.1132 23.2 16.2172 23.168C16.3212 23.136 16.4292 23.12 16.5412 23.12C16.6372 23.12 16.7172 23.136 16.7812 23.168L16.6852 23.528C16.6452 23.512 16.6172 23.504 16.6012 23.504C16.5852 23.504 16.5572 23.504 16.5172 23.504C16.4372 23.504 16.3612 23.516 16.2892 23.54C16.2172 23.564 16.1452 23.612 16.0732 23.684C16.0012 23.748 15.9252 23.844 15.8452 23.972C15.7732 24.092 15.6932 24.256 15.6052 24.464L14.9692 25.976L16.9252 29H16.5172L14.6932 26.168H13.1332V29H12.7732Z" fill="#F1F1F1"/>
<path d="M24.0556 29.144C23.7116 29.144 23.3836 29.076 23.0716 28.94C22.7676 28.804 22.4996 28.608 22.2676 28.352C22.0356 28.096 21.8516 27.784 21.7156 27.416C21.5796 27.04 21.5116 26.616 21.5116 26.144C21.5116 25.664 21.5796 25.236 21.7156 24.86C21.8516 24.484 22.0356 24.168 22.2676 23.912C22.4996 23.656 22.7676 23.46 23.0716 23.324C23.3836 23.188 23.7116 23.12 24.0556 23.12C24.3996 23.12 24.7236 23.188 25.0276 23.324C25.3396 23.46 25.6116 23.656 25.8436 23.912C26.0756 24.168 26.2596 24.484 26.3956 24.86C26.5316 25.236 26.5996 25.664 26.5996 26.144C26.5996 26.616 26.5316 27.04 26.3956 27.416C26.2596 27.784 26.0756 28.096 25.8436 28.352C25.6116 28.608 25.3396 28.804 25.0276 28.94C24.7236 29.076 24.3996 29.144 24.0556 29.144ZM24.0556 28.808C24.3596 28.808 24.6436 28.744 24.9076 28.616C25.1716 28.488 25.3996 28.308 25.5916 28.076C25.7836 27.836 25.9356 27.556 26.0476 27.236C26.1596 26.908 26.2156 26.544 26.2156 26.144C26.2156 25.752 26.1596 25.392 26.0476 25.064C25.9356 24.728 25.7836 24.444 25.5916 24.212C25.3996 23.972 25.1716 23.788 24.9076 23.66C24.6436 23.524 24.3596 23.456 24.0556 23.456C23.7516 23.456 23.4676 23.524 23.2036 23.66C22.9396 23.788 22.7116 23.972 22.5196 24.212C22.3276 24.444 22.1756 24.728 22.0636 25.064C21.9516 25.392 21.8956 25.752 21.8956 26.144C21.8956 26.544 21.9516 26.908 22.0636 27.236C22.1756 27.556 22.3276 27.836 22.5196 28.076C22.7116 28.308 22.9396 28.488 23.2036 28.616C23.4676 28.744 23.7516 28.808 24.0556 28.808Z" fill="#F1F1F1"/>
<path d="M32.2423 29V23.264H32.6023V25.808H36.1303V23.264H36.4903V29H36.1303V26.144H32.6023V29H32.2423Z" fill="#F1F1F1"/>
<path d="M42.6331 29V23.264H42.9931V25.808H46.5211V23.264H46.8811V29H46.5211V26.144H42.9931V29H42.6331Z" fill="#F1F1F1"/>
<path d="M54.2479 29.144C54.0239 29.144 53.8119 29.112 53.6119 29.048C53.4119 28.992 53.2359 28.904 53.0839 28.784C52.9319 28.656 52.8119 28.496 52.7239 28.304C52.6359 28.104 52.5919 27.868 52.5919 27.596C52.5919 26.956 52.8959 26.472 53.5039 26.144C54.1119 25.808 55.0639 25.568 56.3599 25.424C56.3679 25.192 56.3519 24.96 56.3119 24.728C56.2799 24.488 56.2119 24.276 56.1079 24.092C56.0039 23.9 55.8559 23.748 55.6639 23.636C55.4799 23.516 55.2399 23.456 54.9439 23.456C54.7359 23.456 54.5399 23.48 54.3559 23.528C54.1719 23.568 53.9999 23.624 53.8399 23.696C53.6799 23.768 53.5319 23.844 53.3959 23.924C53.2679 24.004 53.1599 24.08 53.0719 24.152L52.8799 23.864C52.9679 23.8 53.0799 23.724 53.2159 23.636C53.3599 23.548 53.5199 23.468 53.6959 23.396C53.8799 23.316 54.0799 23.252 54.2959 23.204C54.5119 23.148 54.7359 23.12 54.9679 23.12C55.3039 23.12 55.5839 23.18 55.8079 23.3C56.0319 23.412 56.2119 23.568 56.3479 23.768C56.4839 23.968 56.5799 24.2 56.6359 24.464C56.6919 24.72 56.7199 24.992 56.7199 25.28V29H56.4079L56.3599 28.232H56.3359C56.0319 28.472 55.7039 28.684 55.3519 28.868C54.9999 29.052 54.6319 29.144 54.2479 29.144ZM54.2719 28.808C54.6239 28.808 54.9639 28.728 55.2919 28.568C55.6199 28.4 55.9759 28.152 56.3599 27.824V25.736C55.7279 25.808 55.1959 25.9 54.7639 26.012C54.3319 26.116 53.9839 26.244 53.7199 26.396C53.4559 26.548 53.2639 26.724 53.1439 26.924C53.0319 27.116 52.9759 27.336 52.9759 27.584C52.9759 27.808 53.0079 28 53.0719 28.16C53.1439 28.312 53.2399 28.436 53.3599 28.532C53.4799 28.628 53.6159 28.7 53.7679 28.748C53.9279 28.788 54.0959 28.808 54.2719 28.808Z" fill="#F1F1F1"/>
<path d="M65.9158 29V26.408H64.4998L62.5318 29H62.0998L64.1038 26.384C63.8718 26.36 63.6558 26.312 63.4558 26.24C63.2558 26.16 63.0798 26.056 62.9278 25.928C62.7838 25.792 62.6678 25.632 62.5798 25.448C62.4998 25.264 62.4598 25.048 62.4598 24.8C62.4598 24.52 62.5118 24.284 62.6158 24.092C62.7198 23.892 62.8678 23.732 63.0598 23.612C63.2518 23.492 63.4758 23.404 63.7318 23.348C63.9958 23.292 64.2838 23.264 64.5958 23.264H66.2758V29H65.9158ZM64.7158 26.072H65.9158V23.6H64.7158C64.1478 23.6 63.6918 23.696 63.3478 23.888C63.0118 24.072 62.8438 24.376 62.8438 24.8C62.8438 25.232 63.0118 25.552 63.3478 25.76C63.6838 25.968 64.1398 26.072 64.7158 26.072Z" fill="#F1F1F1"/>
<path d="M81.521 31.664V28.64C81.353 28.784 81.169 28.904 80.969 29C80.777 29.096 80.553 29.144 80.297 29.144C79.649 29.144 79.129 28.888 78.737 28.376C78.353 27.864 78.161 27.12 78.161 26.144C78.161 25.68 78.213 25.264 78.317 24.896C78.429 24.52 78.581 24.2 78.773 23.936C78.965 23.672 79.189 23.472 79.445 23.336C79.709 23.192 79.993 23.12 80.297 23.12C80.521 23.12 80.729 23.168 80.921 23.264C81.121 23.36 81.321 23.476 81.521 23.612V20.336H81.881V23.624C82.073 23.464 82.281 23.34 82.505 23.252C82.729 23.164 82.953 23.12 83.177 23.12C83.873 23.12 84.389 23.388 84.725 23.924C85.069 24.452 85.241 25.16 85.241 26.048C85.241 26.536 85.185 26.972 85.073 27.356C84.961 27.74 84.809 28.064 84.617 28.328C84.425 28.592 84.197 28.796 83.933 28.94C83.677 29.076 83.401 29.144 83.105 29.144C82.921 29.144 82.721 29.1 82.505 29.012C82.297 28.924 82.089 28.8 81.881 28.64V31.664H81.521ZM80.321 28.808C80.529 28.808 80.725 28.768 80.909 28.688C81.101 28.608 81.305 28.464 81.521 28.256V23.984C81.313 23.784 81.105 23.648 80.897 23.576C80.689 23.496 80.481 23.456 80.273 23.456C80.017 23.456 79.785 23.528 79.577 23.672C79.369 23.808 79.185 24 79.025 24.248C78.873 24.488 78.753 24.772 78.665 25.1C78.585 25.428 78.545 25.776 78.545 26.144C78.545 26.544 78.585 26.908 78.665 27.236C78.745 27.556 78.857 27.836 79.001 28.076C79.153 28.308 79.337 28.488 79.553 28.616C79.777 28.744 80.033 28.808 80.321 28.808ZM83.129 28.808C83.385 28.808 83.617 28.74 83.825 28.604C84.041 28.468 84.225 28.28 84.377 28.04C84.529 27.792 84.645 27.5 84.725 27.164C84.813 26.82 84.857 26.448 84.857 26.048C84.857 25.68 84.825 25.34 84.761 25.028C84.705 24.708 84.609 24.432 84.473 24.2C84.337 23.968 84.161 23.788 83.945 23.66C83.729 23.524 83.465 23.456 83.153 23.456C82.961 23.456 82.757 23.492 82.541 23.564C82.333 23.636 82.113 23.776 81.881 23.984V28.28C82.113 28.488 82.337 28.628 82.553 28.7C82.777 28.772 82.969 28.808 83.129 28.808Z" fill="#F1F1F1"/>
<path d="M91.9204 29.144C91.6964 29.144 91.4844 29.112 91.2844 29.048C91.0844 28.992 90.9084 28.904 90.7564 28.784C90.6044 28.656 90.4844 28.496 90.3964 28.304C90.3084 28.104 90.2644 27.868 90.2644 27.596C90.2644 26.956 90.5684 26.472 91.1764 26.144C91.7844 25.808 92.7364 25.568 94.0324 25.424C94.0404 25.192 94.0244 24.96 93.9844 24.728C93.9524 24.488 93.8844 24.276 93.7804 24.092C93.6764 23.9 93.5284 23.748 93.3364 23.636C93.1524 23.516 92.9124 23.456 92.6164 23.456C92.4084 23.456 92.2124 23.48 92.0284 23.528C91.8444 23.568 91.6724 23.624 91.5124 23.696C91.3524 23.768 91.2044 23.844 91.0684 23.924C90.9404 24.004 90.8324 24.08 90.7444 24.152L90.5524 23.864C90.6404 23.8 90.7524 23.724 90.8884 23.636C91.0324 23.548 91.1924 23.468 91.3684 23.396C91.5524 23.316 91.7524 23.252 91.9684 23.204C92.1844 23.148 92.4084 23.12 92.6404 23.12C92.9764 23.12 93.2564 23.18 93.4804 23.3C93.7044 23.412 93.8844 23.568 94.0204 23.768C94.1564 23.968 94.2524 24.2 94.3084 24.464C94.3644 24.72 94.3924 24.992 94.3924 25.28V29H94.0804L94.0324 28.232H94.0084C93.7044 28.472 93.3764 28.684 93.0244 28.868C92.6724 29.052 92.3044 29.144 91.9204 29.144ZM91.9444 28.808C92.2964 28.808 92.6364 28.728 92.9644 28.568C93.2924 28.4 93.6484 28.152 94.0324 27.824V25.736C93.4004 25.808 92.8684 25.9 92.4364 26.012C92.0044 26.116 91.6564 26.244 91.3924 26.396C91.1284 26.548 90.9364 26.724 90.8164 26.924C90.7044 27.116 90.6484 27.336 90.6484 27.584C90.6484 27.808 90.6804 28 90.7444 28.16C90.8164 28.312 90.9124 28.436 91.0324 28.532C91.1524 28.628 91.2884 28.7 91.4404 28.748C91.6004 28.788 91.7684 28.808 91.9444 28.808Z" fill="#F1F1F1"/>
<path d="M100.372 31.664V23.264H100.684L100.732 24.008H100.756C101.044 23.776 101.356 23.572 101.692 23.396C102.036 23.212 102.388 23.12 102.748 23.12C103.524 23.12 104.1 23.388 104.476 23.924C104.86 24.452 105.052 25.16 105.052 26.048C105.052 26.536 104.984 26.972 104.848 27.356C104.712 27.74 104.528 28.064 104.296 28.328C104.064 28.592 103.792 28.796 103.48 28.94C103.176 29.076 102.852 29.144 102.508 29.144C102.228 29.144 101.94 29.084 101.644 28.964C101.348 28.836 101.044 28.656 100.732 28.424V31.664H100.372ZM102.532 28.808C102.844 28.808 103.128 28.74 103.384 28.604C103.648 28.468 103.876 28.28 104.068 28.04C104.26 27.792 104.408 27.5 104.512 27.164C104.616 26.82 104.668 26.448 104.668 26.048C104.668 25.68 104.632 25.34 104.56 25.028C104.496 24.708 104.384 24.432 104.224 24.2C104.072 23.968 103.872 23.788 103.624 23.66C103.376 23.524 103.076 23.456 102.724 23.456C102.42 23.456 102.104 23.544 101.776 23.72C101.456 23.888 101.108 24.136 100.732 24.464V28.016C101.084 28.304 101.412 28.508 101.716 28.628C102.028 28.748 102.3 28.808 102.532 28.808Z" fill="#F1F1F1"/>
<path d="M112.877 29.144C112.053 29.144 111.413 28.844 110.957 28.244C110.509 27.636 110.285 26.76 110.285 25.616C110.285 24.912 110.321 24.304 110.393 23.792C110.465 23.28 110.573 22.848 110.717 22.496C110.861 22.144 111.033 21.856 111.233 21.632C111.441 21.4 111.677 21.216 111.941 21.08C112.205 20.944 112.497 20.84 112.817 20.768C113.137 20.688 113.485 20.616 113.861 20.552C114.013 20.528 114.133 20.508 114.221 20.492C114.317 20.468 114.401 20.444 114.473 20.42C114.545 20.396 114.609 20.372 114.665 20.348C114.729 20.316 114.805 20.28 114.893 20.24L114.989 20.624C114.829 20.712 114.669 20.776 114.509 20.816C114.357 20.856 114.165 20.896 113.933 20.936C113.437 21.016 112.997 21.108 112.613 21.212C112.229 21.316 111.901 21.492 111.629 21.74C111.357 21.98 111.141 22.324 110.981 22.772C110.821 23.212 110.717 23.816 110.669 24.584C110.981 24.2 111.325 23.908 111.701 23.708C112.085 23.508 112.477 23.408 112.877 23.408C113.245 23.408 113.577 23.476 113.873 23.612C114.169 23.74 114.417 23.924 114.617 24.164C114.825 24.404 114.981 24.692 115.085 25.028C115.197 25.356 115.253 25.72 115.253 26.12C115.253 26.592 115.189 27.016 115.061 27.392C114.933 27.76 114.757 28.076 114.533 28.34C114.317 28.596 114.065 28.796 113.777 28.94C113.489 29.076 113.189 29.144 112.877 29.144ZM112.877 28.808C113.149 28.808 113.405 28.744 113.645 28.616C113.893 28.48 114.105 28.296 114.281 28.064C114.465 27.824 114.609 27.54 114.713 27.212C114.817 26.884 114.869 26.52 114.869 26.12C114.869 25.792 114.825 25.484 114.737 25.196C114.649 24.908 114.521 24.656 114.353 24.44C114.185 24.224 113.973 24.056 113.717 23.936C113.469 23.808 113.181 23.744 112.853 23.744C112.501 23.744 112.141 23.84 111.773 24.032C111.405 24.216 111.033 24.556 110.657 25.052C110.649 25.14 110.645 25.232 110.645 25.328C110.645 25.416 110.645 25.512 110.645 25.616C110.645 26.104 110.689 26.544 110.777 26.936C110.873 27.328 111.013 27.664 111.197 27.944C111.381 28.216 111.613 28.428 111.893 28.58C112.173 28.732 112.501 28.808 112.877 28.808Z" fill="#F1F1F1"/>
<path d="M120.896 29V23.264H121.256V26.312C121.256 26.632 121.252 26.98 121.244 27.356C121.236 27.732 121.224 28.112 121.208 28.496H121.256C121.376 28.312 121.516 28.104 121.676 27.872C121.836 27.64 121.976 27.432 122.096 27.248L124.832 23.264H125.192V29H124.832V25.952C124.832 25.632 124.836 25.284 124.844 24.908C124.852 24.532 124.864 24.152 124.88 23.768H124.832C124.712 23.952 124.572 24.16 124.412 24.392C124.252 24.624 124.112 24.832 123.992 25.016L121.256 29H120.896Z" fill="#F1F1F1"/>
<path d="M131.334 29V23.264H131.694V25.832H133.242L133.854 24.368C133.958 24.112 134.062 23.904 134.166 23.744C134.27 23.576 134.37 23.448 134.466 23.36C134.57 23.264 134.674 23.2 134.778 23.168C134.882 23.136 134.99 23.12 135.102 23.12C135.198 23.12 135.278 23.136 135.342 23.168L135.246 23.528C135.206 23.512 135.178 23.504 135.162 23.504C135.146 23.504 135.118 23.504 135.078 23.504C134.998 23.504 134.922 23.516 134.85 23.54C134.778 23.564 134.706 23.612 134.634 23.684C134.562 23.748 134.486 23.844 134.406 23.972C134.334 24.092 134.254 24.256 134.166 24.464L133.53 25.976L135.486 29H135.078L133.254 26.168H131.694V29H131.334Z" fill="#F1F1F1"/>
<path d="M141.8 29.144C141.576 29.144 141.364 29.112 141.164 29.048C140.964 28.992 140.788 28.904 140.636 28.784C140.484 28.656 140.364 28.496 140.276 28.304C140.188 28.104 140.144 27.868 140.144 27.596C140.144 26.956 140.448 26.472 141.056 26.144C141.664 25.808 142.616 25.568 143.912 25.424C143.92 25.192 143.904 24.96 143.864 24.728C143.832 24.488 143.764 24.276 143.66 24.092C143.556 23.9 143.408 23.748 143.216 23.636C143.032 23.516 142.792 23.456 142.496 23.456C142.288 23.456 142.092 23.48 141.908 23.528C141.724 23.568 141.552 23.624 141.392 23.696C141.232 23.768 141.084 23.844 140.948 23.924C140.82 24.004 140.712 24.08 140.624 24.152L140.432 23.864C140.52 23.8 140.632 23.724 140.768 23.636C140.912 23.548 141.072 23.468 141.248 23.396C141.432 23.316 141.632 23.252 141.848 23.204C142.064 23.148 142.288 23.12 142.52 23.12C142.856 23.12 143.136 23.18 143.36 23.3C143.584 23.412 143.764 23.568 143.9 23.768C144.036 23.968 144.132 24.2 144.188 24.464C144.244 24.72 144.272 24.992 144.272 25.28V29H143.96L143.912 28.232H143.888C143.584 28.472 143.256 28.684 142.904 28.868C142.552 29.052 142.184 29.144 141.8 29.144ZM141.824 28.808C142.176 28.808 142.516 28.728 142.844 28.568C143.172 28.4 143.528 28.152 143.912 27.824V25.736C143.28 25.808 142.748 25.9 142.316 26.012C141.884 26.116 141.536 26.244 141.272 26.396C141.008 26.548 140.816 26.724 140.696 26.924C140.584 27.116 140.528 27.336 140.528 27.584C140.528 27.808 140.56 28 140.624 28.16C140.696 28.312 140.792 28.436 140.912 28.532C141.032 28.628 141.168 28.7 141.32 28.748C141.48 28.788 141.648 28.808 141.824 28.808Z" fill="#F1F1F1"/>
</svg>
