<svg width="145" height="15" viewBox="0 0 145 15" fill="none" xmlns="http://www.w3.org/2000/svg">
<path d="M10.86 13H0.524994V12.4C0.854994 12.39 1.12499 12.36 1.33499 12.31C1.54499 12.26 1.70499 12.175 1.81499 12.055C1.92499 11.935 1.99999 11.765 2.03999 11.545C2.07999 11.325 2.09999 11.04 2.09999 10.69V3.76001C2.09999 3.41001 2.07999 3.13001 2.03999 2.92001C2.00999 2.70001 1.94499 2.53001 1.84499 2.41001C1.74499 2.28001 1.59999 2.19501 1.40999 2.15501C1.22999 2.10501 0.989994 2.07001 0.689994 2.05001V1.45001H5.86499V2.05001C5.52499 2.06001 5.24999 2.09001 5.03999 2.14001C4.83999 2.19001 4.68499 2.28001 4.57499 2.41001C4.46499 2.54001 4.38999 2.72001 4.34999 2.95001C4.31999 3.18001 4.30499 3.48501 4.30499 3.86501V10.15C4.30499 10.57 4.34499 10.915 4.42499 11.185C4.51499 11.445 4.66499 11.65 4.87499 11.8C5.08499 11.94 5.36499 12.04 5.71499 12.1C6.06499 12.15 6.49999 12.175 7.01999 12.175C7.59999 12.175 8.08499 12.14 8.47499 12.07C8.86499 12 9.18999 11.87 9.45 11.68C9.71999 11.48 9.93499 11.215 10.095 10.885C10.255 10.555 10.39 10.125 10.5 9.59501H11.1L10.86 13Z" fill="black"/>
<path d="M22.4732 8.35001C22.4732 9.20001 22.3782 9.93001 22.1882 10.54C22.0082 11.14 21.7232 11.635 21.3332 12.025C20.9432 12.415 20.4382 12.7 19.8182 12.88C19.2082 13.06 18.4732 13.15 17.6132 13.15C16.0032 13.15 14.8232 12.815 14.0732 12.145C13.3332 11.465 12.9632 10.385 12.9632 8.90501V4.79501C12.9632 4.40501 12.9582 4.08001 12.9482 3.82001C12.9382 3.55001 12.9232 3.32501 12.9032 3.14501C12.8832 2.96501 12.8532 2.82001 12.8132 2.71001C12.7832 2.59001 12.7432 2.49001 12.6932 2.41001C12.6032 2.27001 12.4732 2.17501 12.3032 2.12501C12.1332 2.07501 11.8732 2.05001 11.5232 2.05001V1.45001H16.9082V2.05001C16.4882 2.05001 16.1782 2.07501 15.9782 2.12501C15.7782 2.16501 15.6232 2.25001 15.5132 2.38001C15.4432 2.46001 15.3832 2.56001 15.3332 2.68001C15.2932 2.79001 15.2582 2.94001 15.2282 3.13001C15.2082 3.31001 15.1932 3.53501 15.1832 3.80501C15.1732 4.07501 15.1682 4.40501 15.1682 4.79501V8.72501C15.1682 9.86501 15.4082 10.71 15.8882 11.26C16.3782 11.8 17.1282 12.07 18.1382 12.07C20.1982 12.07 21.2282 10.925 21.2282 8.63501V5.17001C21.2282 4.75001 21.2182 4.39001 21.1982 4.09001C21.1882 3.79001 21.1632 3.53501 21.1232 3.32501C21.0932 3.11501 21.0482 2.94001 20.9882 2.80001C20.9382 2.66001 20.8732 2.54501 20.7932 2.45501C20.6532 2.31501 20.4732 2.21501 20.2532 2.15501C20.0332 2.08501 19.7282 2.05001 19.3382 2.05001V1.45001H24.1982V2.05001C23.8282 2.05001 23.5432 2.08001 23.3432 2.14001C23.1432 2.19001 22.9882 2.28501 22.8782 2.42501C22.7982 2.51501 22.7332 2.63501 22.6832 2.78501C22.6332 2.92501 22.5932 3.10501 22.5632 3.32501C22.5332 3.53501 22.5082 3.79001 22.4882 4.09001C22.4782 4.39001 22.4732 4.75001 22.4732 5.17001V8.35001Z" fill="black"/>
<path d="M35.2064 11.335C35.4564 11.675 35.7464 11.94 36.0764 12.13C36.4164 12.31 36.7914 12.4 37.2014 12.4V13H31.6064V12.4C31.8564 12.4 32.0564 12.39 32.2064 12.37C32.3664 12.35 32.4864 12.325 32.5664 12.295C32.6564 12.265 32.7114 12.225 32.7314 12.175C32.7614 12.125 32.7764 12.07 32.7764 12.01C32.7764 11.95 32.7614 11.89 32.7314 11.83C32.7114 11.76 32.6714 11.675 32.6114 11.575C32.5514 11.475 32.4714 11.35 32.3714 11.2C32.2714 11.05 32.1414 10.865 31.9814 10.645L30.3764 8.36501L29.3414 9.64001C29.1214 9.91001 28.9064 10.16 28.6964 10.39C28.4964 10.62 28.3114 10.835 28.1414 11.035C27.9814 11.235 27.8514 11.415 27.7514 11.575C27.6514 11.725 27.6014 11.86 27.6014 11.98C27.6014 12.14 27.7014 12.25 27.9014 12.31C28.1014 12.37 28.4314 12.4 28.8914 12.4V13H24.2864V12.4C24.5564 12.4 24.7864 12.39 24.9764 12.37C25.1764 12.34 25.3514 12.29 25.5014 12.22C25.6614 12.15 25.8064 12.055 25.9364 11.935C26.0764 11.805 26.2314 11.64 26.4014 11.44L29.6864 7.43501L26.1914 2.90501C25.9214 2.55501 25.6514 2.32501 25.3814 2.21501C25.1114 2.10501 24.8064 2.05001 24.4664 2.05001V1.45001H30.1064V2.05001C29.7464 2.05001 29.4864 2.09501 29.3264 2.18501C29.1664 2.27501 29.0864 2.41001 29.0864 2.59001C29.0864 2.86001 29.2364 3.19501 29.5364 3.59501L31.0814 5.72501L33.0164 3.41501C33.1664 3.23501 33.2714 3.07501 33.3314 2.93501C33.4014 2.78501 33.4364 2.64501 33.4364 2.51501C33.4364 2.44501 33.4214 2.38001 33.3914 2.32001C33.3614 2.26001 33.3014 2.21001 33.2114 2.17001C33.1314 2.13001 33.0114 2.10001 32.8514 2.08001C32.6914 2.06001 32.4814 2.05001 32.2214 2.05001V1.45001H36.6914V2.05001C36.2714 2.05001 35.9464 2.08001 35.7164 2.14001C35.4864 2.20001 35.2964 2.32001 35.1464 2.50001L31.8014 6.64001L35.2064 11.335Z" fill="black"/>
<path d="M48.3862 8.35001C48.3862 9.20001 48.2912 9.93001 48.1012 10.54C47.9212 11.14 47.6362 11.635 47.2462 12.025C46.8562 12.415 46.3512 12.7 45.7312 12.88C45.1212 13.06 44.3862 13.15 43.5262 13.15C41.9162 13.15 40.7362 12.815 39.9862 12.145C39.2462 11.465 38.8762 10.385 38.8762 8.90501V4.79501C38.8762 4.40501 38.8712 4.08001 38.8612 3.82001C38.8512 3.55001 38.8362 3.32501 38.8162 3.14501C38.7962 2.96501 38.7662 2.82001 38.7262 2.71001C38.6962 2.59001 38.6562 2.49001 38.6062 2.41001C38.5162 2.27001 38.3862 2.17501 38.2162 2.12501C38.0462 2.07501 37.7862 2.05001 37.4362 2.05001V1.45001H42.8212V2.05001C42.4012 2.05001 42.0912 2.07501 41.8912 2.12501C41.6912 2.16501 41.5362 2.25001 41.4262 2.38001C41.3562 2.46001 41.2962 2.56001 41.2462 2.68001C41.2062 2.79001 41.1712 2.94001 41.1412 3.13001C41.1212 3.31001 41.1062 3.53501 41.0962 3.80501C41.0862 4.07501 41.0812 4.40501 41.0812 4.79501V8.72501C41.0812 9.86501 41.3212 10.71 41.8012 11.26C42.2912 11.8 43.0412 12.07 44.0512 12.07C46.1112 12.07 47.1412 10.925 47.1412 8.63501V5.17001C47.1412 4.75001 47.1312 4.39001 47.1112 4.09001C47.1012 3.79001 47.0762 3.53501 47.0362 3.32501C47.0062 3.11501 46.9612 2.94001 46.9012 2.80001C46.8512 2.66001 46.7862 2.54501 46.7062 2.45501C46.5662 2.31501 46.3862 2.21501 46.1662 2.15501C45.9462 2.08501 45.6412 2.05001 45.2512 2.05001V1.45001H50.1112V2.05001C49.7412 2.05001 49.4562 2.08001 49.2562 2.14001C49.0562 2.19001 48.9012 2.28501 48.7912 2.42501C48.7112 2.51501 48.6462 2.63501 48.5962 2.78501C48.5462 2.92501 48.5062 3.10501 48.4762 3.32501C48.4462 3.53501 48.4212 3.79001 48.4012 4.09001C48.3912 4.39001 48.3862 4.75001 48.3862 5.17001V8.35001Z" fill="black"/>
<path d="M60.6545 4.34501C60.6545 5.17501 60.4145 5.87001 59.9345 6.43001C59.4545 6.99001 58.6895 7.36501 57.6395 7.55501L61.1195 11.545C61.3595 11.825 61.6445 12.04 61.9745 12.19C62.3045 12.33 62.6395 12.4 62.9795 12.4V13H59.4245L55.7045 8.44001C55.4545 8.14001 55.2345 7.94001 55.0445 7.84001C54.8645 7.73001 54.6945 7.67501 54.5345 7.67501V10.615C54.5345 10.985 54.5595 11.29 54.6095 11.53C54.6595 11.76 54.7595 11.94 54.9095 12.07C55.0595 12.2 55.2745 12.29 55.5545 12.34C55.8445 12.38 56.2295 12.4 56.7095 12.4V13H50.7545V12.4C51.0845 12.4 51.3495 12.38 51.5495 12.34C51.7595 12.29 51.9195 12.205 52.0295 12.085C52.1495 11.955 52.2295 11.78 52.2695 11.56C52.3095 11.33 52.3295 11.04 52.3295 10.69V3.76001C52.3295 3.41001 52.3145 3.13001 52.2845 2.92001C52.2545 2.70001 52.1895 2.53001 52.0895 2.41001C51.9895 2.28001 51.8445 2.19501 51.6545 2.15501C51.4745 2.10501 51.2295 2.07001 50.9195 2.05001V1.45001H56.1095C57.5595 1.45001 58.6795 1.70501 59.4695 2.21501C60.2595 2.72501 60.6545 3.43501 60.6545 4.34501ZM54.5345 6.77501H55.5095C56.4495 6.77501 57.1495 6.59501 57.6095 6.23501C58.0795 5.86501 58.3145 5.26001 58.3145 4.42001C58.3145 3.78001 58.1195 3.26501 57.7295 2.87501C57.3395 2.48501 56.7995 2.29001 56.1095 2.29001H54.8045C54.6245 2.29001 54.5345 2.37501 54.5345 2.54501V6.77501Z" fill="black"/>
<path d="M63.3607 3.34001C63.2107 3.08001 63.0707 2.86501 62.9407 2.69501C62.8207 2.52501 62.6957 2.39501 62.5657 2.30501C62.4357 2.20501 62.2957 2.14001 62.1457 2.11001C61.9957 2.07001 61.8257 2.05001 61.6357 2.05001V1.45001H66.6757V2.05001C66.2557 2.05001 65.9607 2.09001 65.7907 2.17001C65.6207 2.25001 65.5357 2.37001 65.5357 2.53001C65.5357 2.63001 65.5657 2.75001 65.6257 2.89001C65.6857 3.03001 65.7807 3.22001 65.9107 3.46001L68.0557 7.55501H68.1157L70.0057 4.40501C70.3357 3.84501 70.5657 3.43001 70.6957 3.16001C70.8257 2.88001 70.8907 2.66001 70.8907 2.50001C70.8907 2.33001 70.8107 2.21501 70.6507 2.15501C70.5007 2.08501 70.2157 2.05001 69.7957 2.05001V1.45001H73.5607V2.05001C73.3407 2.05001 73.1407 2.08501 72.9607 2.15501C72.7807 2.22501 72.5907 2.36501 72.3907 2.57501C72.2007 2.77501 71.9807 3.06001 71.7307 3.43001C71.4907 3.79001 71.2007 4.26501 70.8607 4.85501L68.6707 8.60501V10.135C68.6707 10.635 68.6907 11.035 68.7307 11.335C68.7807 11.635 68.8607 11.865 68.9707 12.025C69.0907 12.175 69.2507 12.275 69.4507 12.325C69.6507 12.375 69.9107 12.4 70.2307 12.4V13H64.8907V12.4C65.2007 12.4 65.4557 12.375 65.6557 12.325C65.8657 12.275 66.0307 12.175 66.1507 12.025C66.2707 11.875 66.3507 11.66 66.3907 11.38C66.4407 11.09 66.4657 10.71 66.4657 10.24V8.86001L63.3607 3.34001Z" fill="black"/>
<path d="M82.5807 10.42L84.5307 5.42501C84.7207 4.93501 84.8707 4.53501 84.9807 4.22501C85.1007 3.91501 85.1907 3.66001 85.2507 3.46001C85.3107 3.26001 85.3507 3.10001 85.3707 2.98001C85.3907 2.86001 85.4007 2.74501 85.4007 2.63501C85.4007 2.39501 85.3107 2.24001 85.1307 2.17001C84.9507 2.09001 84.5907 2.05001 84.0507 2.05001V1.45001H88.3107V2.05001C87.4807 2.05001 86.9057 2.45501 86.5857 3.26501L82.6407 13.15H81.5307L77.9457 4.39001C77.7457 3.92001 77.5657 3.53501 77.4057 3.23501C77.2457 2.93501 77.0757 2.70001 76.8957 2.53001C76.7157 2.35001 76.5157 2.23001 76.2957 2.17001C76.0857 2.10001 75.8357 2.06501 75.5457 2.06501V1.45001H81.2157V2.06501C80.9557 2.07501 80.7357 2.09001 80.5557 2.11001C80.3857 2.13001 80.2507 2.16501 80.1507 2.21501C80.0507 2.25501 79.9807 2.31501 79.9407 2.39501C79.9007 2.46501 79.8807 2.55501 79.8807 2.66501C79.8807 2.80501 79.9057 2.97001 79.9557 3.16001C80.0057 3.35001 80.0807 3.58001 80.1807 3.85001L82.5807 10.42Z" fill="black"/>
<path d="M93.9761 13H88.621V12.4C88.961 12.39 89.231 12.36 89.431 12.31C89.641 12.25 89.801 12.145 89.911 11.995C90.021 11.845 90.096 11.635 90.136 11.365C90.176 11.085 90.196 10.71 90.196 10.24V4.21001C90.196 3.79001 90.176 3.44501 90.136 3.17501C90.106 2.89501 90.041 2.67501 89.941 2.51501C89.841 2.35501 89.6961 2.24501 89.5061 2.18501C89.3261 2.11501 89.081 2.07001 88.771 2.05001V1.45001H93.826V2.05001C93.516 2.07001 93.2661 2.11501 93.076 2.18501C92.8961 2.24501 92.7561 2.35501 92.6561 2.51501C92.5561 2.67501 92.486 2.89501 92.446 3.17501C92.416 3.44501 92.401 3.79001 92.401 4.21001V10.24C92.401 10.71 92.416 11.085 92.446 11.365C92.486 11.635 92.5611 11.845 92.6711 11.995C92.7911 12.145 92.951 12.25 93.151 12.31C93.361 12.36 93.6361 12.39 93.9761 12.4V13Z" fill="black"/>
<path d="M98.8167 6.61001C99.4567 6.61001 99.9717 6.59001 100.362 6.55001C100.752 6.51001 101.052 6.43001 101.262 6.31001C101.482 6.18001 101.637 5.99501 101.727 5.75501C101.817 5.51501 101.887 5.19001 101.937 4.78001H102.492V9.17501H101.937C101.877 8.77501 101.797 8.45501 101.697 8.21501C101.597 7.97501 101.437 7.79501 101.217 7.67501C100.997 7.54501 100.697 7.46501 100.317 7.43501C99.9467 7.39501 99.4467 7.37501 98.8167 7.37501V10.465C98.8167 10.785 98.8567 11.055 98.9367 11.275C99.0267 11.495 99.1717 11.675 99.3717 11.815C99.5717 11.945 99.8367 12.04 100.167 12.1C100.497 12.15 100.902 12.175 101.382 12.175C101.952 12.175 102.432 12.135 102.822 12.055C103.222 11.975 103.552 11.835 103.812 11.635C104.072 11.435 104.282 11.17 104.442 10.84C104.602 10.5 104.737 10.075 104.847 9.56501H105.447L105.207 13H95.0367V12.4C95.3667 12.39 95.6367 12.36 95.8467 12.31C96.0567 12.26 96.2167 12.175 96.3267 12.055C96.4367 11.935 96.5117 11.765 96.5517 11.545C96.5917 11.325 96.6117 11.04 96.6117 10.69V3.76001C96.6117 3.41001 96.5917 3.13001 96.5517 2.92001C96.5217 2.70001 96.4567 2.53001 96.3567 2.41001C96.2567 2.28001 96.1117 2.19501 95.9217 2.15501C95.7417 2.10501 95.5017 2.07001 95.2017 2.05001V1.45001H104.682L104.787 4.39001H104.142C104.082 3.97001 103.987 3.62501 103.857 3.35501C103.727 3.07501 103.547 2.85501 103.317 2.69501C103.087 2.52501 102.787 2.41001 102.417 2.35001C102.057 2.28001 101.612 2.24501 101.082 2.24501H99.3867C99.1267 2.24501 98.9667 2.28001 98.9067 2.35001C98.8467 2.41001 98.8167 2.56001 98.8167 2.80001V6.61001Z" fill="black"/>
<path d="M119.272 10.09L121.297 4.30001C121.537 3.63001 121.657 3.13001 121.657 2.80001C121.657 2.49001 121.547 2.29001 121.327 2.20001C121.117 2.10001 120.787 2.05001 120.337 2.05001V1.45001H124.597V2.05001C124.217 2.05001 123.872 2.14501 123.562 2.33501C123.262 2.51501 123.032 2.82501 122.872 3.26501L119.257 13.15H117.922L115.312 5.23001L112.342 13.15H111.097L107.917 4.39001C107.727 3.88001 107.552 3.47001 107.392 3.16001C107.232 2.85001 107.062 2.61501 106.882 2.45501C106.702 2.29501 106.507 2.19001 106.297 2.14001C106.087 2.09001 105.837 2.06501 105.547 2.06501V1.45001H111.217V2.06501C110.707 2.06501 110.357 2.11501 110.167 2.21501C109.977 2.30501 109.882 2.46001 109.882 2.68001C109.882 2.76001 109.887 2.84001 109.897 2.92001C109.907 2.99001 109.927 3.07501 109.957 3.17501C109.987 3.26501 110.022 3.38001 110.062 3.52001C110.112 3.66001 110.177 3.83501 110.257 4.04501L112.357 10.09L114.787 3.46001C114.687 3.19001 114.587 2.97001 114.487 2.80001C114.387 2.63001 114.267 2.49501 114.127 2.39501C113.997 2.29501 113.847 2.22501 113.677 2.18501C113.507 2.13501 113.302 2.09501 113.062 2.06501V1.45001H118.357V2.06501C117.937 2.06501 117.627 2.12001 117.427 2.23001C117.227 2.33001 117.127 2.53001 117.127 2.83001C117.127 2.98001 117.147 3.15501 117.187 3.35501C117.237 3.55501 117.302 3.78501 117.382 4.04501L119.272 10.09Z" fill="black"/>
<path d="M130.5 7C130.5 3.41015 133.41 0.5 137 0.5H138C141.59 0.5 144.5 3.41015 144.5 7V14.5H130.5V7Z" stroke="#F1BC00"/>
<line x1="137.5" y1="1" x2="137.5" y2="14" stroke="#F1BC00"/>
<line x1="131" y1="7.5" x2="144" y2="7.5" stroke="#F1BC00"/>
</svg>
