<svg width="35" height="38" viewBox="0 0 35 38" fill="none" xmlns="http://www.w3.org/2000/svg">
<path d="M0.78125 18.55H15.625V34.2886C15.625 36.2975 17.3773 37.9318 19.5312 37.9318H30.4688C32.6227 37.9318 34.375 36.2975 34.375 34.2886V4.26868C34.375 2.2598 32.6227 0.625488 30.4688 0.625488H19.5312C17.3773 0.625488 15.625 2.2598 15.625 4.26868V12.7209H11.4844C11.0529 12.7209 10.7031 13.0471 10.7031 13.4495C10.7031 13.852 11.0529 14.1782 11.4844 14.1782H23.4375C24.299 14.1782 25 14.8319 25 15.6354C25 16.4404 24.3005 17.0927 23.4375 17.0927H1.5625V14.1782H5.23438C5.66589 14.1782 6.01562 13.852 6.01562 13.4495C6.01562 13.0471 5.66589 12.7209 5.23438 12.7209H0.78125C0.349731 12.7209 0 13.0471 0 13.4495V17.8214C0 18.2238 0.349731 18.55 0.78125 18.55ZM17.1875 4.26868C17.1875 3.0633 18.2388 2.08276 19.5312 2.08276H30.4688C31.7612 2.08276 32.8125 3.0633 32.8125 4.26868V34.2886C32.8125 35.494 31.7612 36.4745 30.4688 36.4745H19.5312C18.2388 36.4745 17.1875 35.494 17.1875 34.2886V18.55H19.5877C20.6958 20.3343 22.7682 21.4645 25 21.4645C28.4464 21.4645 31.25 18.8497 31.25 15.6354C31.25 12.4212 28.4464 9.80633 25 9.80633C22.7682 9.80633 20.6958 10.9366 19.5877 12.7209H17.1875V4.26868ZM26.5625 15.6354C26.5625 14.0284 25.1605 12.7209 23.4375 12.7209H21.5088C22.3865 11.8112 23.6545 11.2636 25 11.2636C27.5848 11.2636 29.6875 13.2247 29.6875 15.6354C29.6875 18.0462 27.5848 20.0073 25 20.0073C23.6545 20.0073 22.3865 19.4596 21.5088 18.55H23.4375C25.1639 18.55 26.5625 17.2458 26.5625 15.6354Z" fill="#F1BC00"/>
<path d="M25 24.3789C23.7076 24.3789 22.6562 25.3594 22.6562 26.5648C22.6562 27.5146 23.3093 28.3247 24.2188 28.6255V30.9366C24.2188 31.3391 24.5685 31.6653 25 31.6653C25.4315 31.6653 25.7812 31.3391 25.7812 30.9366V28.6255C26.6907 28.3247 27.3438 27.5146 27.3438 26.5648C27.3438 25.3594 26.2924 24.3789 25 24.3789ZM25 27.2935C24.5691 27.2935 24.2188 26.9667 24.2188 26.5648C24.2188 26.1629 24.5691 25.8362 25 25.8362C25.4309 25.8362 25.7812 26.1629 25.7812 26.5648C25.7812 26.9667 25.4309 27.2935 25 27.2935Z" fill="#F1BC00"/>
<path d="M8.35938 14.178C8.79059 14.178 9.14062 13.8515 9.14062 13.4493C9.14062 13.0472 8.79059 12.7207 8.35938 12.7207C7.92816 12.7207 7.57812 13.0472 7.57812 13.4493C7.57812 13.8515 7.92816 14.178 8.35938 14.178Z" fill="#F1BC00"/>
</svg>
