<svg width="26" height="38" viewBox="0 0 26 38" fill="none" xmlns="http://www.w3.org/2000/svg">
<path d="M15.8241 35.5476C15.4238 35.3979 14.9688 35.5793 14.8082 35.9529C14.6741 36.265 14.3339 36.4747 13.9619 36.4747H11.1078C10.7358 36.4747 10.3956 36.265 10.2615 35.9529C10.101 35.5793 9.64619 35.3983 9.24564 35.5476C8.84517 35.6974 8.65064 36.1216 8.81119 36.4951C9.18642 37.368 10.0878 37.932 11.1078 37.932H13.9619C14.9819 37.932 15.8833 37.368 16.2585 36.4951C16.4191 36.1216 16.2246 35.6974 15.8241 35.5476Z" fill="#F1BC00"/>
<path d="M24.9989 31.7938C24.7867 30.7735 24.1127 29.8901 23.1492 29.3683C23.3244 29.2349 23.4888 29.0872 23.6388 28.9247C24.3787 28.123 24.7064 27.0632 24.5375 26.0172C24.2634 24.3177 23.4878 22.7298 22.2948 21.425C21.4015 20.4481 20.3035 19.6609 19.0747 19.1077C20.5785 17.6116 21.501 15.6013 21.501 13.3936C21.501 9.57301 18.7395 6.3426 14.9803 5.34735C15.4924 4.77719 15.7717 4.06488 15.7717 3.31219C15.7718 1.83073 14.4795 0.625488 12.8911 0.625488C12.891 0.625488 12.891 0.625488 12.8909 0.625488C12.2497 0.625488 11.6492 0.819962 11.2 1.17299C10.7036 1.5631 10.4303 2.1114 10.4302 2.71682C10.4302 3.11918 10.7799 3.44546 11.2114 3.44546C11.6428 3.44546 11.9927 3.11925 11.9927 2.71682C11.9927 2.54348 12.0647 2.39899 12.2069 2.28722C12.3747 2.15534 12.6176 2.08269 12.891 2.08269H12.891C13.6179 2.08269 14.2093 2.63412 14.2093 3.31205C14.2093 3.77124 14.0176 4.20288 13.6695 4.52756C13.3213 4.85217 12.8586 5.03098 12.3664 5.03098C12.3663 5.03098 12.3663 5.03098 12.3663 5.03098C12.3471 5.03098 12.3284 5.03236 12.3096 5.03367C7.46931 5.14559 3.56861 8.85268 3.56853 13.3935C3.56853 15.6012 4.49103 17.6115 5.99486 19.1077C4.76611 19.6609 3.66814 20.448 2.77486 21.425C1.58181 22.7297 0.806262 24.3177 0.532043 26.0171C0.363293 27.0631 0.690872 28.1229 1.43079 28.9246C1.58079 29.0872 1.74517 29.2349 1.9204 29.3683C0.956888 29.89 0.282747 30.7734 0.070637 31.7938C-0.142098 32.8168 0.130871 33.8742 0.819387 34.6949L2.49244 36.6888C3.16837 37.4944 4.19517 37.9276 5.23666 37.9276C5.82791 37.9276 6.424 37.788 6.96322 37.4976C8.45236 36.6957 9.09049 34.9695 8.4476 33.4822L7.43267 31.1339C7.36486 30.977 7.2847 30.8266 7.19525 30.682H12.9254C13.3569 30.682 13.7067 30.3557 13.7067 29.9534C13.7067 29.551 13.3569 29.2247 12.9254 29.2247H5.71009V27.6887C5.71009 27.4909 5.88259 27.33 6.0947 27.33H18.9749C19.187 27.33 19.3596 27.4909 19.3596 27.6887V29.3255C18.5844 29.7218 17.9724 30.3575 17.6368 31.1339L16.6219 33.4821C15.979 34.9695 16.6171 36.6957 18.1063 37.4976C18.6456 37.788 19.2414 37.9276 19.8328 37.9276C20.8742 37.9276 21.9012 37.4943 22.5771 36.6888L24.2501 34.6949C24.9388 33.8742 25.2117 32.8168 24.9989 31.7938ZM5.13095 13.3936C5.13103 9.58605 8.45244 6.4884 12.5348 6.48833C16.6171 6.4884 19.9385 9.58605 19.9386 13.3936C19.9386 17.201 16.6173 20.2987 12.5348 20.2988C8.45236 20.2987 5.13095 17.201 5.13095 13.3936ZM5.98369 31.6788L6.99861 34.0271C7.35213 34.8452 7.00103 35.7946 6.18205 36.2357C5.36314 36.6767 4.30587 36.4856 3.72298 35.7909L2.04994 33.7969C1.64033 33.3088 1.47798 32.6799 1.60454 32.0713C1.73111 31.4627 2.13384 30.9359 2.70947 30.626C3.28501 30.316 3.97556 30.2543 4.60392 30.4562C5.23228 30.6583 5.73517 31.104 5.98369 31.6788ZM18.9801 24.4155C18.5486 24.4155 18.1989 24.7418 18.1989 25.1441V25.8728H6.87588V25.1441C6.87588 24.7418 6.52611 24.4155 6.09462 24.4155C5.66314 24.4155 5.31337 24.7418 5.31337 25.1441V26.0259C4.62767 26.3072 4.14752 26.9465 4.14752 27.6888V28.7177C3.55587 28.6625 3.00689 28.3986 2.61494 27.974C2.1722 27.4941 1.97619 26.8599 2.07712 26.234C2.52439 23.4613 4.50658 21.1704 7.28931 20.1713C8.76525 21.1676 10.5776 21.756 12.5348 21.756C14.492 21.756 16.3043 21.1676 17.7803 20.1713C20.563 21.1704 22.5452 23.4613 22.9925 26.234C23.0934 26.8599 22.8974 27.4941 22.4546 27.974C22.0627 28.3986 21.5136 28.6625 20.922 28.7177V27.6888C20.922 26.9484 20.4442 26.3105 19.7614 26.0281V25.1441C19.7614 24.7418 19.4116 24.4155 18.9801 24.4155ZM23.0196 33.7969L21.3467 35.7908C20.7638 36.4854 19.7067 36.6766 18.8876 36.2356C18.0685 35.7946 17.7175 34.8451 18.0711 34.0269L19.086 31.6786C19.3346 31.1037 19.8374 30.6581 20.4658 30.4561C20.7092 30.3779 20.9618 30.3392 21.2135 30.3392C21.6117 30.3392 22.0076 30.436 22.3603 30.6259C22.9359 30.9359 23.3385 31.4627 23.4652 32.0712C23.5916 32.6798 23.4292 33.3088 23.0196 33.7969Z" fill="#F1BC00"/>
<path d="M16.5809 29.4381C16.4356 29.3026 16.234 29.2246 16.0286 29.2246C15.8231 29.2246 15.6215 29.3025 15.4762 29.4381C15.3309 29.5737 15.2473 29.7616 15.2473 29.9532C15.2473 30.1456 15.3309 30.3329 15.4762 30.4683C15.6215 30.6046 15.8231 30.6819 16.0286 30.6819C16.234 30.6819 16.4356 30.6046 16.5809 30.4683C16.7262 30.3329 16.8098 30.1449 16.8098 29.9532C16.8098 29.7616 16.7262 29.5736 16.5809 29.4381Z" fill="#F1BC00"/>
<path d="M14.6885 15.8818C14.3534 15.6284 13.8614 15.6766 13.5897 15.9891C13.3301 16.2878 12.9455 16.4591 12.5346 16.4591C12.1237 16.4591 11.7391 16.2877 11.4795 15.9891C11.2079 15.6764 10.7159 15.6286 10.3807 15.8818C10.0454 16.1352 9.99397 16.594 10.2657 16.9066C10.8233 17.5483 11.6504 17.9163 12.5346 17.9163C13.4188 17.9163 14.2459 17.5483 14.8035 16.9066C15.0752 16.594 15.0238 16.1352 14.6885 15.8818Z" fill="#F1BC00"/>
<path d="M10.5607 12.8785C9.85206 12.2176 8.69891 12.2176 7.99007 12.8785C7.68499 13.1631 7.68491 13.6244 7.99007 13.909C8.29515 14.1936 8.78985 14.1936 9.09493 13.909C9.19439 13.8163 9.35634 13.8163 9.45588 13.909C9.60846 14.0513 9.80838 14.1225 10.0083 14.1225C10.2082 14.1225 10.4082 14.0513 10.5607 13.909C10.8658 13.6245 10.8658 13.1631 10.5607 12.8785Z" fill="#F1BC00"/>
<path d="M17.0795 12.878C16.3708 12.2171 15.2175 12.2171 14.5088 12.878C14.2038 13.1625 14.2038 13.6239 14.5088 13.9085C14.6613 14.0508 14.8614 14.1219 15.0613 14.1219C15.2612 14.1219 15.4612 14.0507 15.6137 13.9085C15.7132 13.8158 15.8751 13.8157 15.9747 13.9085C16.2797 14.1931 16.7744 14.193 17.0795 13.9084C17.3846 13.6239 17.3846 13.1626 17.0795 12.878Z" fill="#F1BC00"/>
</svg>
