<svg width="40" height="38" viewBox="0 0 40 38" fill="none" xmlns="http://www.w3.org/2000/svg">
<path d="M13.5621 5.43476C13.6967 5.69519 13.9756 5.84718 14.2661 5.84718C14.3797 5.84718 14.495 5.82384 14.6043 5.77489C14.9928 5.60041 15.156 5.16522 14.969 4.8029L13.0243 1.03761C12.8373 0.675564 12.371 0.52329 11.9825 0.697765C11.594 0.872239 11.4307 1.30743 11.6178 1.66947L13.5621 5.43476Z" fill="#F1BC00"/>
<path d="M39.1236 24.4584L36.2779 22.9319L39.0968 21.5541C39.4785 21.3674 39.6259 20.9273 39.4257 20.5713C39.2252 20.2149 38.7534 20.0774 38.372 20.2644L34.6745 22.0718L31.1445 20.1785C31.2357 19.8927 31.2855 19.5904 31.2855 19.2776C31.2855 18.9645 31.2357 18.6626 31.1442 18.3768L34.6751 16.4838L38.3717 18.2926C38.4873 18.3495 38.6112 18.3762 38.7336 18.3762C39.0144 18.3762 39.286 18.2342 39.4254 17.9863C39.6256 17.6302 39.4785 17.1899 39.0968 17.0032L36.2785 15.6239L39.1233 14.0986C39.4969 13.8982 39.6256 13.4531 39.4108 13.1044C39.196 12.756 38.7187 12.6359 38.3451 12.836L35.4923 14.3656L35.6165 11.4055C35.6333 11.0036 35.2976 10.6652 34.8667 10.6495C34.4361 10.6333 34.0733 10.9467 34.0562 11.3486L33.8938 15.2229L30.3642 17.1153C29.9171 16.6719 29.3345 16.3488 28.6787 16.204V12.4304L32.2086 10.364C32.5736 10.1503 32.6838 9.70087 32.4546 9.36046C32.2254 9.01977 31.7436 8.91702 31.3786 9.13077L28.6787 10.7113V7.65727C28.6787 7.25509 28.3292 6.9292 27.898 6.9292C27.4668 6.9292 27.1174 7.25509 27.1174 7.65727V10.7116L24.4151 9.13077C24.0501 8.91702 23.5682 9.01977 23.339 9.36046C23.1101 9.70116 23.2203 10.1506 23.5856 10.364L27.1174 12.4304V16.204C26.4613 16.3486 25.8784 16.6713 25.431 17.1148L22.3582 15.4668V7.65727C22.3582 7.25509 22.0087 6.9292 21.5775 6.9292C15.7078 6.9292 10.5942 10.7452 9.14251 16.2085C9.03875 16.599 9.29388 16.9938 9.71228 17.0906C10.1307 17.1874 10.5543 16.9491 10.6577 16.5589C11.8717 11.9915 15.9788 8.73116 20.7969 8.41124V30.146C15.9782 29.8261 11.8714 26.5649 10.6577 21.9961C10.5543 21.6059 10.1307 21.3682 9.71228 21.4644C9.29388 21.5612 9.03875 21.956 9.14251 22.3462C10.5939 27.811 15.7075 31.6278 21.5775 31.6278C22.0087 31.6278 22.3582 31.3019 22.3582 30.8997V23.0879L25.4298 21.4408C25.8775 21.8848 26.4606 22.2081 27.1174 22.3533V26.1248L23.5853 28.1929C23.22 28.407 23.1098 28.8564 23.3393 29.1968C23.5685 29.5372 24.0504 29.64 24.4154 29.4262L27.1174 27.844V30.9C27.1174 31.3019 27.4668 31.6281 27.898 31.6281C28.3292 31.6281 28.6787 31.3019 28.6787 30.9V27.8443L31.3783 29.4262C31.5073 29.5016 31.6508 29.5378 31.7927 29.5378C32.0524 29.5378 32.3063 29.4171 32.4546 29.1968C32.6838 28.8564 32.5739 28.407 32.2086 28.1929L28.6787 26.1248V22.353C29.3348 22.2078 29.9177 21.8845 30.3651 21.4402L33.8938 23.3333L34.0562 27.2061C34.0727 27.5984 34.4187 27.9057 34.8359 27.9057C34.8463 27.9057 34.8567 27.9057 34.8667 27.9052C35.2976 27.8895 35.6333 27.5511 35.6165 27.1492L35.4923 24.1905L38.3448 25.7207C38.4675 25.7864 38.6012 25.8177 38.7333 25.8177C39.0037 25.8177 39.2664 25.6868 39.4108 25.4526C39.6259 25.1039 39.4972 24.659 39.1236 24.4584ZM22.3585 21.4083V17.1467L24.6503 18.3757C24.5588 18.6617 24.5087 18.9643 24.5087 19.2774C24.5087 19.591 24.5585 19.8933 24.65 20.1793L22.3585 21.4083ZM27.8983 20.9825C26.8903 20.9825 26.07 20.2178 26.07 19.2774C26.07 18.3384 26.8903 17.5744 27.8983 17.5744C28.9051 17.5744 29.7242 18.3384 29.7242 19.2774C29.7242 20.2178 28.9051 20.9825 27.8983 20.9825Z" fill="#F1BC00"/>
<path d="M4.41317 7.44391L7.92117 10.0525C8.06491 10.1595 8.23672 10.2113 8.40732 10.2113C8.63681 10.2113 8.86417 10.1174 9.01828 9.93721C9.28714 9.6227 9.2316 9.16446 8.89469 8.91399L5.38668 6.30542C5.04977 6.05467 4.55843 6.10618 4.28957 6.42069C4.02102 6.7352 4.07625 7.19316 4.41317 7.44391Z" fill="#F1BC00"/>
<path d="M7.92117 28.5045L4.41317 31.1131C4.07625 31.3639 4.02102 31.8218 4.28957 32.1363C4.44369 32.3168 4.67104 32.4104 4.90054 32.4104C5.07113 32.4104 5.24294 32.3586 5.38668 32.2516L8.89469 29.643C9.2316 29.3926 9.28714 28.9343 9.01828 28.6198C8.74942 28.3056 8.25839 28.2538 7.92117 28.5045Z" fill="#F1BC00"/>
<path d="M14.6042 32.7804C14.2154 32.6056 13.7491 32.7582 13.562 33.1205L11.6178 36.8878C11.4307 37.2502 11.594 37.6851 11.9825 37.8596C12.0917 37.9088 12.2071 37.9319 12.3206 37.9319C12.6111 37.9319 12.89 37.7799 13.0246 37.5194L14.9689 33.7521C15.156 33.3898 14.9927 32.9546 14.6042 32.7804Z" fill="#F1BC00"/>
<path d="M0.607179 15.5609L4.97639 16.4905C5.03499 16.503 5.09328 16.5087 5.15095 16.5087C5.50709 16.5087 5.82875 16.2802 5.91115 15.9426C6.00697 15.5504 5.74391 15.1602 5.32368 15.0708L0.954165 14.1412C0.533631 14.0524 0.115539 14.2972 0.019714 14.6894C-0.0761115 15.0813 0.186646 15.4716 0.607179 15.5609Z" fill="#F1BC00"/>
<path d="M5.91122 22.612C5.81509 22.2201 5.39639 21.9747 4.97617 22.0644L0.606676 22.9959C0.186451 23.0853 -0.0763048 23.4758 0.0198252 23.868C0.102528 24.2053 0.424182 24.4339 0.780015 24.4339C0.837693 24.4339 0.896287 24.4279 0.954575 24.4157L5.32407 23.4841C5.74429 23.3944 6.00735 23.0039 5.91122 22.612Z" fill="#F1BC00"/>
</svg>
