<svg width="35" height="38" viewBox="0 0 35 38" fill="none" xmlns="http://www.w3.org/2000/svg">
<path d="M26.6065 21.1002C25.4219 21.1002 24.458 21.9991 24.458 23.104V27.3905C24.458 27.4029 24.4501 27.4147 24.4369 27.4223C23.1486 28.1532 22.3793 29.4806 22.4291 30.8864C22.5012 32.9197 24.2648 34.5729 26.4443 34.65C26.4987 34.6519 26.553 34.653 26.6071 34.653C27.4179 34.653 28.2005 34.4377 28.8797 34.0266C29.1511 33.8622 29.2283 33.5238 29.0521 33.2706C28.8759 33.0174 28.5131 32.9455 28.2416 33.1097C27.7208 33.4251 27.1137 33.58 26.4887 33.5578C24.9209 33.5023 23.6522 32.313 23.6004 30.8502C23.5645 29.838 24.1184 28.8823 25.0459 28.3561C25.4061 28.1517 25.6299 27.7818 25.6299 27.3905V23.104C25.6299 22.6017 26.068 22.1932 26.6065 22.1932C27.145 22.1932 27.583 22.6017 27.583 23.104V27.3906C27.583 27.7823 27.8056 28.1515 28.1639 28.3543C29.0721 28.8682 29.6143 29.7655 29.6143 30.7547C29.6143 31.1602 29.5237 31.5512 29.3451 31.9167C29.2109 32.1914 29.3409 32.5154 29.6353 32.6406C29.9299 32.7658 30.2773 32.6445 30.4115 32.37C30.6602 31.8611 30.7862 31.3177 30.7862 30.7547C30.7862 29.3802 30.0331 28.1335 28.7718 27.4198C28.7614 27.414 28.755 27.4028 28.755 27.3906V23.104C28.7549 21.9991 27.7911 21.1002 26.6065 21.1002ZM26.6065 0.625488C22.4709 0.625488 19.1065 3.76337 19.1065 7.62041V10.9372C19.1065 11.239 19.3688 11.4837 19.6924 11.4837C20.0161 11.4837 20.2784 11.239 20.2784 10.9372V7.62041C20.2784 4.36603 23.1171 1.71845 26.6065 1.71845C30.0959 1.71845 32.9346 4.36603 32.9346 7.62041V8.20478H30.3138C29.9902 8.20478 29.7279 8.44946 29.7279 8.75126C29.7279 9.05306 29.9902 9.29774 30.3138 9.29774H32.9346V12.5766H31.4857C31.162 12.5766 30.8998 12.8213 30.8998 13.1231C30.8998 13.4249 31.162 13.6696 31.4857 13.6696H32.9346V16.9484H30.3138C29.9902 16.9484 29.7279 17.1931 29.7279 17.4949C29.7279 17.7967 29.9902 18.0414 30.3138 18.0414H32.9346V21.3203H31.4857C31.162 21.3203 30.8998 21.5649 30.8998 21.8667C30.8998 22.1685 31.162 22.4132 31.4857 22.4132H32.9346V25.6921H30.3138C29.9902 25.6921 29.7279 25.9368 29.7279 26.2386C29.7279 26.5404 29.9902 26.7851 30.3138 26.7851H32.9346V30.9368C32.9346 34.1912 30.0959 36.8388 26.6065 36.8388C23.1171 36.8388 20.2784 34.1912 20.2784 30.9368V13.1231C20.2784 12.8213 20.0161 12.5766 19.6924 12.5766C19.3688 12.5766 19.1065 12.8213 19.1065 13.1231V14.4734L15.3151 16.5091V12.3001L17.793 9.9957C18.1332 9.67933 18.3163 9.24127 18.2954 8.79389C18.2744 8.34665 18.05 7.92448 17.6797 7.63564C17.0049 7.10935 15.9796 7.15941 15.3452 7.74953L15.3151 7.77751V6.52418C15.3151 5.64209 14.5441 4.92438 13.5966 4.92438C12.649 4.92438 11.8781 5.64202 11.8781 6.52418V7.77751L11.848 7.7496C11.2136 7.15948 10.1881 7.10927 9.51344 7.63564C9.14313 7.92448 8.91875 8.34665 8.89774 8.79389C8.87672 9.24127 9.05985 9.67933 9.40008 9.9957L11.8781 12.3001V16.5091L7.95594 14.4032L7.04899 11.2553C6.8036 10.4037 5.85993 9.89602 4.94462 10.1244C4.50055 10.2351 4.12962 10.5002 3.90009 10.8709C3.6711 11.2409 3.61048 11.6717 3.72923 12.0841L3.74618 12.1429L2.57805 11.5157C1.75774 11.0753 0.705165 11.3379 0.231493 12.101C0.00188371 12.471 -0.0593661 12.902 0.0592276 13.3148C0.178056 13.7282 0.462665 14.0735 0.86079 14.2873L2.02462 14.9122L1.96274 14.9276C1.51868 15.0382 1.14774 15.3034 0.918212 15.6741C0.689227 16.0441 0.628602 16.4749 0.747352 16.8873C0.992743 17.7389 1.93696 18.2463 2.85157 18.0182L6.23798 17.1744L10.157 19.2786L6.2379 21.3829L2.85157 20.5391C1.93696 20.3111 0.992665 20.8184 0.747274 21.67C0.62829 22.0832 0.689305 22.5147 0.919149 22.8848C1.14868 23.2547 1.51931 23.5193 1.96266 23.6298L2.02446 23.6452L0.860633 24.2702C0.462509 24.4839 0.177899 24.8293 0.0590711 25.2427C-0.0595226 25.6554 0.00172755 26.0865 0.231337 26.4564C0.705009 27.2197 1.75782 27.4822 2.5779 27.0418L3.74602 26.4145L3.72907 26.4733C3.61024 26.8858 3.67094 27.3166 3.89993 27.6865C4.12946 28.0573 4.50048 28.3225 4.94446 28.4331C5.85993 28.6612 6.80344 28.1538 7.04883 27.3022L7.95579 24.1542L11.8779 22.0483V26.2574L9.39993 28.5618C9.05977 28.8781 8.87665 29.3162 8.89758 29.7636C8.9186 30.2108 9.14297 30.633 9.51329 30.9218C10.1879 31.448 11.2134 31.3981 11.8478 30.8079L11.8779 30.78V32.0333C11.8779 32.9154 12.6488 33.6331 13.5964 33.6331C14.544 33.6331 15.3149 32.9155 15.3149 32.0333V30.78L15.3637 30.8254C15.6882 31.1272 16.1196 31.2934 16.5783 31.2934C17.037 31.2934 17.4684 31.1272 17.7929 30.8254C18.1178 30.5232 18.2968 30.1213 18.2968 29.6936C18.2968 29.266 18.1178 28.8641 17.7929 28.5618L15.3149 26.2574V22.0482L19.1063 24.0839V30.9368C19.1063 34.7939 22.4708 37.9318 26.6063 37.9318C30.7419 37.9318 34.1063 34.7939 34.1063 30.9368V7.62041C34.1065 3.76337 30.7419 0.625488 26.6065 0.625488V0.625488ZM19.1065 20.3902L17.0361 19.2786L19.1065 18.167V20.3902ZM19.1065 16.9058L16.1975 18.4677C15.8828 18.6367 15.6948 18.9399 15.6948 19.2786C15.6948 19.6174 15.8827 19.9206 16.1975 20.0895L19.1065 21.6514V22.8228L15.647 20.9653C15.3328 20.7965 14.9581 20.7969 14.6443 20.9661C14.3305 21.1353 14.1432 21.4381 14.1432 21.7761V26.4841C14.1432 26.6293 14.2052 26.7685 14.3154 26.871L16.9655 29.3357C17.3643 29.6015 16.8906 30.5702 16.1913 30.0513L15.1429 29.0762C14.9752 28.9203 14.7234 28.8738 14.5045 28.9584C14.2858 29.0431 14.1432 29.2423 14.1432 29.4632V32.0331C14.1432 32.3126 13.898 32.54 13.5966 32.54C13.2952 32.54 13.0499 32.3127 13.0499 32.0331V29.4632C13.0499 29.2423 12.9073 29.0431 12.6886 28.9584C12.4698 28.8738 12.2181 28.9203 12.0502 29.0762L11.0205 30.0338C10.567 30.443 9.71985 29.9417 10.2276 29.3356L12.8777 26.871C12.988 26.7684 13.0499 26.6292 13.0499 26.484V21.776C13.0499 21.438 12.8627 21.1352 12.5488 20.966C12.235 20.7968 11.8603 20.7965 11.5462 20.9651L7.16071 23.3198C7.02594 23.3922 6.92758 23.5115 6.88719 23.6516L5.91719 27.0184C5.8393 27.2888 5.53884 27.4496 5.24719 27.377C5.10579 27.3417 4.9879 27.2575 4.91501 27.1398C4.84266 27.023 4.82344 26.8869 4.86102 26.7568L5.24477 25.4248C5.30626 25.2114 5.22383 24.9845 5.03602 24.8498C4.84837 24.7151 4.59188 24.6993 4.38657 24.8094L1.99337 26.0944C1.73204 26.2348 1.39634 26.1516 1.24563 25.9086C1.17313 25.7918 1.15376 25.6557 1.19126 25.5254C1.22884 25.3945 1.31915 25.2851 1.44556 25.2172L3.83876 23.9323C4.0443 23.8219 4.15829 23.6068 4.12735 23.3875C4.09641 23.1682 3.9268 22.9878 3.69759 22.9307L2.2654 22.5738C2.12423 22.5386 2.00649 22.4546 1.93352 22.3371C1.86087 22.2202 1.84157 22.084 1.87923 21.9535C1.95712 21.6832 2.25688 21.5223 2.54923 21.5949L6.16938 22.497C6.31891 22.5343 6.47852 22.5148 6.61297 22.4427L10.9958 20.0895C11.3105 19.9205 11.4985 19.6173 11.4985 19.2786C11.4985 18.9398 11.3106 18.6366 10.9958 18.4677L6.61297 16.1144C6.47852 16.0423 6.31891 16.0227 6.16938 16.0601L2.54899 16.9623C2.25782 17.0348 1.95696 16.874 1.87907 16.6036C1.84157 16.4734 1.86079 16.3374 1.93305 16.2206C2.00595 16.1029 2.12384 16.0187 2.26516 15.9835L3.69743 15.6266C3.92665 15.5696 4.09618 15.3892 4.12719 15.1698C4.15813 14.9505 4.04415 14.7354 3.8386 14.625L1.4454 13.3401C1.31899 13.2722 1.22876 13.1627 1.1911 13.0319C1.15368 12.9016 1.17306 12.7655 1.24548 12.6486C1.39641 12.4057 1.73196 12.3225 1.99321 12.4629L4.38641 13.7478C4.59188 13.858 4.84813 13.842 5.03587 13.7075C5.22368 13.5727 5.3061 13.3458 5.24462 13.1324L4.86087 11.8005C4.82337 11.6703 4.84259 11.5342 4.91485 11.4174C4.98774 11.2997 5.10563 11.2155 5.24704 11.1802C5.5379 11.1075 5.83907 11.2684 5.91704 11.5389L6.88704 14.9056C6.92743 15.0457 7.02579 15.1651 7.16055 15.2375L11.546 17.592C11.8602 17.7607 12.2348 17.7604 12.5487 17.5912C12.8625 17.4221 13.0498 17.1192 13.0498 16.7812V12.0733C13.0498 11.9281 12.9878 11.7888 12.8776 11.6863L10.2274 9.22167C10.1181 9.12002 10.0616 8.98508 10.0684 8.84161C10.0752 8.69829 10.1449 8.56772 10.2652 8.47401C10.4794 8.30708 10.8109 8.32872 11.0204 8.52356L12.0502 9.48121C12.2179 9.63721 12.4699 9.68355 12.6885 9.59896C12.9073 9.51422 13.0498 9.31508 13.0498 9.09423V6.52418C13.0498 6.24475 13.2951 6.01734 13.5965 6.01734C13.8979 6.01734 14.1431 6.24467 14.1431 6.52418V9.09416C14.1431 9.31501 14.2857 9.51422 14.5045 9.59889C14.7234 9.68363 14.9751 9.63707 15.1428 9.48114L16.1726 8.52349C16.3818 8.3288 16.7136 8.30686 16.9278 8.47401C17.048 8.56772 17.1178 8.69829 17.1246 8.84161C17.1313 8.98508 17.0748 9.1201 16.9655 9.22167L14.3154 11.6863C14.2052 11.7888 14.1432 11.9281 14.1432 12.0733V16.7812C14.1432 17.1192 14.3305 17.4221 14.6443 17.5912C14.9581 17.7604 15.3328 17.7607 15.647 17.5921L19.1065 15.7346V16.9058Z" fill="#F1BC00"/>
</svg>
